#!OML:ASF E:\motion texture\Top Level 1\Subject 1\Session 1\male.ASF
:FULLY-SPECIFIED
:DEGREES
763
root -40.4634 17.7479 5.65181 -781.201 -97.7718 785.819
lowerback 2.173 -3.28511 5.5186
upperback 0.151454 -4.46027 7.36161
thorax -0.879836 -2.36397 4.66777
lowerneck -2.1731 -14.744 -14.141
upperneck 21.8144 -24.6511 15.4405
head 11.1464 -11.7853 4.51034
rclavicle 1.09332e-014 2.38542e-014
rhumerus -22.5318 -8.96358 -72.9928
rradius 28.3512
rwrist 12.6605
rhand -12.6898 -25.4634
rfingers 7.12502
rthumb 13.3922 -55.013
lclavicle 1.09332e-014 2.38542e-014
lhumerus -37.776 6.83608 90.5736
lradius 40.0912
lwrist -34.0736
lhand -11.1296 18.6046
lfingers 7.12502
lthumb 14.8957 48.0491
rfemur -13.7333 2.07293 30.5979
rtibia 32.1939
rfoot -14.8699 -4.26657
rtoes 10.6835
lfemur -25.9785 5.04917 -8.14467
ltibia 51.8094
lfoot -11.0515 4.65971
ltoes -17.8836
764
root -40.5948 17.771 5.63942 -780.265 -97.9238 785.065
lowerback 2.07644 -3.12243 5.59196
upperback 0.141318 -4.24232 7.22628
thorax -0.860905 -2.25097 4.47175
lowerneck -2.42873 -14.6067 -13.9689
upperneck 21.8795 -24.3353 15.208
head 11.1037 -11.6266 4.44794
rclavicle 7.83212e-014 -1.30403e-013
rhumerus -22.3231 -8.91869 -73.1447
rradius 28.2647
rwrist 12.6684
rhand -12.7859 -25.5569
rfingers 7.12502
rthumb 13.2996 -55.1126
lclavicle 7.83212e-014 -1.30403e-013
lhumerus -38.2428 7.47549 90.5384
lradius 38.9455
lwrist -34.6892
lhand -10.3273 18.6334
lfingers 7.12502
lthumb 15.6684 48.019
rfemur -13.1729 2.13669 30.7113
rtibia 31.6667
rfoot -14.7737 -4.08992
rtoes 10.4891
lfemur -26.2884 4.94992 -8.05092
ltibia 50.4458
lfoot -11.0847 4.88694
ltoes -17.5567
765
root -40.7266 17.7942 5.62797 -779.335 -98.0641 784.322
lowerback 1.97447 -2.96168 5.65621
upperback 0.12702 -4.02739 7.08856
thorax -0.841036 -2.13948 4.27882
lowerneck -2.69292 -14.4634 -13.7934
upperneck 21.9449 -24.0119 14.9745
head 11.0627 -11.4639 4.38504
rclavicle -1.35174e-014 -7.95139e-014
rhumerus -22.1322 -8.88816 -73.2886
rradius 28.2047
rwrist 12.6585
rhand -12.89 -25.6541
rfingers 7.12502
rthumb 13.1993 -55.2163
lclavicle -1.35174e-014 -7.95139e-014
lhumerus -38.7279 8.08466 90.4651
lradius 37.8366
lwrist -35.2855
lhand -9.47602 18.6177
lfingers 7.12502
lthumb 16.4882 47.9371
rfemur -12.6292 2.19639 30.8012
rtibia 31.1584
rfoot -14.6645 -3.90981
rtoes 10.2646
lfemur -26.5636 4.82989 -7.97292
ltibia 48.9927
lfoot -11.1132 5.10454
ltoes -17.2568
766
root -40.8588 17.8173 5.61741 -778.43 -98.1946 783.609
lowerback 1.86737 -2.80361 5.71451
upperback 0.109306 -3.81656 6.94938
thorax -0.81982 -2.03008 4.08827
lowerneck -2.96479 -14.3142 -13.6137
upperneck 22.0074 -23.6804 14.7409
head 11.0217 -11.2971 4.32189
rclavicle 3.85642e-014 -1.59028e-015
rhumerus -21.9593 -8.86553 -73.4267
rradius 28.1728
rwrist 12.6255
rhand -13.0015 -25.7579
rfingers 7.12502
rthumb 13.0918 -55.327
lclavicle 3.85642e-014 -1.59028e-015
lhumerus -39.2279 8.65842 90.3577
lradius 36.7659
lwrist -35.8564
lhand -8.58151 18.5547
lfingers 7.12502
lthumb 17.3492 47.8004
rfemur -12.1056 2.25027 30.8721
rtibia 30.6762
rfoot -14.5429 -3.72752
rtoes 10.006
lfemur -26.8074 4.68822 -7.90595
ltibia 47.4639
lfoot -11.1285 5.30867
ltoes -16.9893
767
root -40.9915 17.84 5.6077 -777.563 -98.3163 782.935
lowerback 1.75634 -2.6487 5.76767
upperback 0.0885714 -3.61039 6.80937
thorax -0.797595 -1.92309 3.90042
lowerneck -3.2412 -14.1588 -13.4308
upperneck 22.0646 -23.3411 14.5088
head 10.98 -11.1264 4.25955
rclavicle -3.37934e-015 1.11319e-014
rhumerus -21.806 -8.84872 -73.5597
rradius 28.1732
rwrist 12.5697
rhand -13.1202 -25.8633
rfingers 7.12502
rthumb 12.9774 -55.4397
lclavicle -3.37934e-015 1.11319e-014
lhumerus -39.7409 9.1942 90.2197
lradius 35.7354
lwrist -36.4003
lhand -7.6519 18.4472
lfingers 7.12502
lthumb 18.2438 47.6117
rfemur -11.6036 2.29806 30.9265
rtibia 30.2255
rfoot -14.4102 -3.54397
rtoes 9.71571
lfemur -27.0185 4.52324 -7.84718
ltibia 45.8697
lfoot -11.1184 5.49371
ltoes -16.7389
768
root -41.1245 17.8622 5.59879 -776.744 -98.4322 782.313
lowerback 1.64264 -2.49739 5.81892
upperback 0.065907 -3.40945 6.6697
thorax -0.774137 -1.81884 3.71477
lowerneck -3.5228 -13.9974 -13.2475
upperneck 22.1161 -22.9948 14.2822
head 10.9386 -10.9521 4.19947
rclavicle -1.61016e-014 7.63333e-014
rhumerus -21.6691 -8.83292 -73.6888
rradius 28.2017
rwrist 12.4897
rhand -13.2459 -25.9649
rfingers 7.12502
rthumb 12.8561 -55.5489
lclavicle -1.61016e-014 7.63333e-014
lhumerus -40.2631 9.69028 90.0548
lradius 34.7453
lwrist -36.9145
lhand -6.69181 18.2949
lfingers 7.12502
lthumb 19.1672 47.3704
rfemur -11.1247 2.33867 30.9689
rtibia 29.8129
rfoot -14.2672 -3.35892
rtoes 9.39425
lfemur -27.1998 4.33715 -7.79149
ltibia 44.2277
lfoot -11.0695 5.6578
ltoes -16.493
769
root -41.258 17.8837 5.59065 -775.98 -98.5404 781.745
lowerback 1.52729 -2.3498 5.8673
upperback 0.0405718 -3.21372 6.53052
thorax -0.750813 -1.71734 3.53209
lowerneck -3.80891 -13.8302 -13.0619
upperneck 22.1627 -22.6417 14.0579
head 10.897 -10.7744 4.14023
rclavicle 3.75703e-014 -1.33583e-013
rhumerus -21.5504 -8.82095 -73.8126
rradius 28.2599
rwrist 12.3899
rhand -13.3775 -26.0592
rfingers 7.12502
rthumb 12.7292 -55.6512
lclavicle 3.75703e-014 -1.33583e-013
lhumerus -40.7925 10.1436 89.8674
lradius 33.7966
lwrist -37.3981
lhand -5.69938 18.1024
lfingers 7.12502
lthumb 20.1213 47.0804
rfemur -10.6722 2.36854 30.9987
rtibia 29.4446
rfoot -14.1157 -3.17212
rtoes 9.03398
lfemur -27.3541 4.12856 -7.73957
ltibia 42.5532
lfoot -10.9772 5.80503
ltoes -16.2681
770
root -41.3922 17.9042 5.58331 -775.27 -98.6435 781.227
lowerback 1.41224 -2.20554 5.91541
upperback 0.0144286 -3.02267 6.39198
thorax -0.726995 -1.61831 3.3511
lowerneck -4.09694 -13.6572 -12.8738
upperneck 22.2034 -22.2823 13.8367
head 10.8545 -10.5937 4.08231
rclavicle 1.6201e-014 -3.18055e-015
rhumerus -21.453 -8.80447 -73.9322
rradius 28.3517
rwrist 12.2615
rhand -13.509 -26.1459
rfingers 7.12502
rthumb 12.6025 -55.7458
lclavicle 1.6201e-014 -3.18055e-015
lhumerus -41.3276 10.5545 89.6609
lradius 32.89
lwrist -37.8463
lhand -4.69254 17.8726
lfingers 7.12502
lthumb 21.0888 46.7458
rfemur -10.242 2.38547 31.0181
rtibia 29.1245
rfoot -13.9568 -2.98088
rtoes 8.64049
lfemur -27.4743 3.89834 -7.6887
ltibia 40.8556
lfoot -10.8379 5.93698
ltoes -16.0744
771
root -41.5269 17.9235 5.57674 -774.61 -98.7395 780.756
lowerback 1.29695 -2.0657 5.95989
upperback -0.0108799 -2.83797 6.25462
thorax -0.700554 -1.52256 3.17415
lowerneck -4.3917 -13.4773 -12.6843
upperneck 22.2402 -21.9146 13.6187
head 10.8128 -10.4087 4.02583
rclavicle -3.45885e-014 -4.92986e-014
rhumerus -21.3731 -8.77911 -74.0489
rradius 28.4774
rwrist 12.1078
rhand -13.6414 -26.228
rfingers 7.12502
rthumb 12.4749 -55.8357
lclavicle -3.45885e-014 -4.92986e-014
lhumerus -41.8604 10.9228 89.4398
lradius 32.0221
lwrist -38.2581
lhand -3.67566 17.6089
lfingers 7.12502
lthumb 22.0654 46.37
rfemur -9.83839 2.38651 31.025
rtibia 28.8604
rfoot -13.7911 -2.78469
rtoes 8.21168
lfemur -27.5667 3.64837 -7.64129
ltibia 39.1565
lfoot -10.6492 6.05104
ltoes -15.898
772
root -41.6622 17.9413 5.5709 -773.995 -98.8283 780.321
lowerback 1.18707 -1.92988 6.0004
upperback -0.0371445 -2.65827 6.11769
thorax -0.676658 -1.42944 3.00093
lowerneck -4.68594 -13.2918 -12.4941
upperneck 22.2702 -21.5419 13.4065
head 10.7704 -10.2214 3.97171
rclavicle 2.60408e-014 -3.18055e-015
rhumerus -21.3155 -8.74642 -74.1619
rradius 28.6357
rwrist 11.9327
rhand -13.7754 -26.2966
rfingers 7.12502
rthumb 12.3457 -55.9121
lclavicle 2.60408e-014 -3.18055e-015
lhumerus -42.3924 11.2503 89.2043
lradius 31.1929
lwrist -38.637
lhand -2.6582 17.3153
lfingers 7.12502
lthumb 23.042 45.9579
rfemur -9.46217 2.37081 31.019
rtibia 28.6584
rfoot -13.6168 -2.58188
rtoes 7.76198
lfemur -27.6312 3.38105 -7.59763
ltibia 37.4693
lfoot -10.4095 6.15463
ltoes -15.6941
773
root -41.798 17.9575 5.56571 -773.423 -98.9095 779.923
lowerback 1.0799 -1.79805 6.03602
upperback -0.0629648 -2.48395 5.98168
thorax -0.652379 -1.33912 2.83221
lowerneck -4.97769 -13.1004 -12.3035
upperneck 22.2928 -21.1639 13.2005
head 10.7267 -10.0316 3.92037
rclavicle 7.35503e-015 -2.22639e-014
rhumerus -21.2776 -8.70245 -74.2717
rradius 28.8266
rwrist 11.735
rhand -13.9055 -26.36
rfingers 7.12502
rthumb 12.2202 -55.9831
lclavicle 7.35503e-015 -2.22639e-014
lhumerus -42.9184 11.5383 88.958
lradius 30.4016
lwrist -38.9811
lhand -1.64648 16.9978
lfingers 7.12502
lthumb 24.0124 45.5158
rfemur -9.11758 2.33822 31.0003
rtibia 28.5258
rfoot -13.4343 -2.37396
rtoes 7.28056
lfemur -27.673 3.09877 -7.55852
ltibia 35.8082
lfoot -10.1344 6.24925
ltoes -15.4868
774
root -41.9344 17.9719 5.56118 -772.896 -98.9816 779.559
lowerback 0.978638 -1.67192 6.06467
upperback -0.0870969 -2.31703 5.84641
thorax -0.628257 -1.25255 2.66905
lowerneck -5.27222 -12.9032 -12.1092
upperneck 22.311 -20.7803 12.9975
head 10.6828 -9.83898 3.86983
rclavicle 8.74653e-015 -3.81667e-014
rhumerus -21.2566 -8.64651 -74.3809
rradius 29.0486
rwrist 11.5175
rhand -14.0364 -26.4064
rfingers 7.12502
rthumb 12.094 -56.0369
lclavicle 8.74653e-015 -3.81667e-014
lhumerus -43.4337 11.7931 88.7003
lradius 29.6468
lwrist -39.2927
lhand -0.654067 16.6616
lfingers 7.12502
lthumb 24.9637 45.0509
rfemur -8.80414 2.28768 30.9678
rtibia 28.4657
rfoot -13.2414 -2.16162
rtoes 6.77249
lfemur -27.6951 2.80452 -7.52667
ltibia 34.1897
lfoot -9.8327 6.32887
ltoes -15.2756
775
root -42.0712 17.9843 5.55725 -772.398 -99.0404 779.212
lowerback 0.885373 -1.55193 6.08065
upperback -0.108578 -2.15787 5.71057
thorax -0.604464 -1.16985 2.51323
lowerneck -5.56636 -12.7005 -11.9146
upperneck 22.3232 -20.3928 12.8019
head 10.639 -9.6443 3.82208
rclavicle -1.2921e-014 -2.78299e-014
rhumerus -21.2503 -8.57737 -74.4902
rradius 29.299
rwrist 11.2847
rhand -14.1626 -26.447
rfingers 7.12502
rthumb 11.9723 -56.0846
lclavicle -1.2921e-014 -2.78299e-014
lhumerus -43.9353 12.0176 88.4317
lradius 28.9278
lwrist -39.5745
lhand 0.30942 16.3146
lfingers 7.12502
lthumb 25.8867 44.5724
rfemur -8.52346 2.21672 30.9156
rtibia 28.4845
rfoot -13.0359 -1.94393
rtoes 6.24739
lfemur -27.6973 2.49932 -7.50895
ltibia 32.6261
lfoot -9.49975 6.39579
ltoes -15.0216
776
root -42.2084 17.9946 5.55387 -771.922 -99.0841 778.873
lowerback 0.801783 -1.43757 6.08213
upperback -0.128606 -2.00548 5.57405
thorax -0.583289 -1.09053 2.36563
lowerneck -5.85548 -12.4932 -11.7234
upperneck 22.3289 -20.0032 12.6163
head 10.5951 -9.44872 3.7785
rclavicle 3.77691e-015 -3.57812e-014
rhumerus -21.261 -8.49823 -74.5969
rradius 29.5745
rwrist 11.0406
rhand -14.2863 -26.4706
rfingers 7.12502
rthumb 11.853 -56.1151
lclavicle 3.77691e-015 -3.57812e-014
lhumerus -44.4216 12.2147 88.1538
lradius 28.2422
lwrist -39.8299
lhand 1.23399 15.9618
lfingers 7.12502
lthumb 26.7718 44.0873
rfemur -8.27815 2.12454 30.8414
rtibia 28.5863
rfoot -12.8145 -1.71986
rtoes 5.71115
lfemur -27.6831 2.18515 -7.50873
ltibia 31.1331
lfoot -9.15607 6.45067
ltoes -14.7547
